<svg width="158" height="28" viewBox="0 0 158 28" fill="none" xmlns="http://www.w3.org/2000/svg">
<path d="M9.9025 7.86596V9.62346H6.40639V21H4.25203V9.62346H0.737018V7.86596H9.9025ZM12.0465 9.20771C11.656 9.20771 11.3284 9.07542 11.0638 8.81085C10.7993 8.54628 10.667 8.21872 10.667 7.82816C10.667 7.4376 10.7993 7.11004 11.0638 6.84547C11.3284 6.5809 11.656 6.44861 12.0465 6.44861C12.4245 6.44861 12.7458 6.5809 13.0103 6.84547C13.2749 7.11004 13.4072 7.4376 13.4072 7.82816C13.4072 8.21872 13.2749 8.54628 13.0103 8.81085C12.7458 9.07542 12.4245 9.20771 12.0465 9.20771ZM13.1048 10.5873V21H10.9504V10.5873H13.1048ZM14.0813 15.7842C14.0813 14.7133 14.2955 13.7747 14.7238 12.9684C15.1648 12.1495 15.7695 11.5196 16.538 11.0786C17.3065 10.6376 18.1884 10.4172 19.1837 10.4172C20.4436 10.4172 21.483 10.7195 22.3019 11.3243C23.1334 11.9164 23.694 12.7668 23.9838 13.8755H21.6594C21.4704 13.3589 21.168 12.9558 20.7523 12.666C20.3365 12.3763 19.8137 12.2314 19.1837 12.2314C18.3018 12.2314 17.5963 12.5463 17.0672 13.1763C16.5506 13.7936 16.2924 14.6629 16.2924 15.7842C16.2924 16.9055 16.5506 17.7811 17.0672 18.411C17.5963 19.0409 18.3018 19.3559 19.1837 19.3559C20.431 19.3559 21.2562 18.8078 21.6594 17.7118H23.9838C23.6814 18.77 23.1145 19.6142 22.283 20.2441C21.4515 20.8614 20.4184 21.1701 19.1837 21.1701C18.1884 21.1701 17.3065 20.9496 16.538 20.5087C15.7695 20.0551 15.1648 19.4252 14.7238 18.6189C14.2955 17.8 14.0813 16.8551 14.0813 15.7842ZM29.1166 15.8031L33.9167 21H31.0064L27.1513 16.5212V21H24.9969V7.01555H27.1513V15.1416L30.9308 10.5873H33.9167L29.1166 15.8031ZM43.8704 15.5385C43.8704 15.9291 43.8453 16.2818 43.7949 16.5968H35.8388C35.9018 17.4283 36.2105 18.096 36.7648 18.6C37.3192 19.1039 37.9995 19.3559 38.8058 19.3559C39.9649 19.3559 40.7838 18.8708 41.2625 17.9007H43.587C43.272 18.8582 42.6988 19.6457 41.8673 20.263C41.0484 20.8677 40.0279 21.1701 38.8058 21.1701C37.8105 21.1701 36.916 20.9496 36.1223 20.5087C35.3412 20.0551 34.7239 19.4252 34.2703 18.6189C33.8294 17.8 33.6089 16.8551 33.6089 15.7842C33.6089 14.7133 33.8231 13.7747 34.2514 12.9684C34.6924 12.1495 35.3034 11.5196 36.0845 11.0786C36.8782 10.6376 37.7853 10.4172 38.8058 10.4172C39.7885 10.4172 40.6641 10.6314 41.4326 11.0597C42.2011 11.4881 42.7996 12.0928 43.2279 12.8739C43.6563 13.6424 43.8704 14.5306 43.8704 15.5385ZM41.6216 14.8582C41.609 14.0645 41.3255 13.4282 40.7712 12.9495C40.2169 12.4707 39.5302 12.2314 38.7113 12.2314C37.968 12.2314 37.3318 12.4707 36.8026 12.9495C36.2735 13.4156 35.9585 14.0519 35.8577 14.8582H41.6216ZM47.3701 12.3448V18.1086C47.3701 18.4992 47.4583 18.7826 47.6347 18.959C47.8237 19.1228 48.1386 19.2047 48.5796 19.2047H49.9024V21H48.2016C47.2315 21 46.4882 20.7732 45.9717 20.3197C45.4551 19.8661 45.1968 19.1291 45.1968 18.1086V12.3448H43.9685V10.5873H45.1968V7.99824H47.3701V10.5873H49.9024V12.3448H47.3701ZM54.5337 21.1701C53.7148 21.1701 52.9778 21.0252 52.3227 20.7354C51.6802 20.4331 51.1699 20.0299 50.792 19.526C50.414 19.0094 50.2124 18.4362 50.1872 17.8063H52.4172C52.455 18.2472 52.6628 18.6189 53.0408 18.9212C53.4314 19.211 53.9164 19.3559 54.4959 19.3559C55.1007 19.3559 55.5668 19.2425 55.8944 19.0157C56.2345 18.7763 56.4046 18.474 56.4046 18.1086C56.4046 17.7181 56.2157 17.4283 55.8377 17.2393C55.4723 17.0503 54.8865 16.8425 54.0802 16.6157C53.2991 16.4015 52.6628 16.1936 52.1715 15.9921C51.6802 15.7905 51.2518 15.4818 50.8864 15.0661C50.5337 14.6503 50.3573 14.1023 50.3573 13.4219C50.3573 12.8676 50.5211 12.3637 50.8486 11.9101C51.1762 11.444 51.6424 11.0786 52.2471 10.814C52.8644 10.5495 53.5699 10.4172 54.3637 10.4172C55.5479 10.4172 56.4991 10.7195 57.2172 11.3243C57.948 11.9164 58.3385 12.729 58.3889 13.7621H56.2345C56.1968 13.296 56.0078 12.9243 55.6676 12.6471C55.3275 12.37 54.8676 12.2314 54.2881 12.2314C53.7211 12.2314 53.2865 12.3385 52.9841 12.5526C52.6817 12.7668 52.5306 13.0503 52.5306 13.403C52.5306 13.6802 52.6313 13.9133 52.8329 14.1023C53.0345 14.2912 53.2802 14.4424 53.5699 14.5558C53.8597 14.6566 54.2881 14.7889 54.855 14.9527C55.6109 15.1542 56.2283 15.3621 56.707 15.5763C57.1983 15.7779 57.6204 16.0802 57.9732 16.4834C58.3259 16.8866 58.5086 17.422 58.5212 18.0897C58.5212 18.6819 58.3574 19.211 58.0299 19.6771C57.7023 20.1433 57.2361 20.5087 56.6314 20.7732C56.0393 21.0378 55.34 21.1701 54.5337 21.1701ZM61.8695 12.1369C62.2349 11.6329 62.7325 11.2235 63.3625 10.9085C64.005 10.581 64.7168 10.4172 65.4979 10.4172C66.4176 10.4172 67.2491 10.6376 67.9924 11.0786C68.7358 11.5196 69.3216 12.1495 69.7499 12.9684C70.1783 13.7747 70.3925 14.7007 70.3925 15.7464C70.3925 16.7921 70.1783 17.7307 69.7499 18.5622C69.3216 19.3811 68.7295 20.0236 67.9735 20.4898C67.2302 20.9433 66.405 21.1701 65.4979 21.1701C64.6916 21.1701 63.9735 21.0126 63.3436 20.6976C62.7262 20.3827 62.2349 19.9795 61.8695 19.4882V21H59.7152V7.01555H61.8695V12.1369ZM68.2003 15.7464C68.2003 15.0283 68.0491 14.4109 67.7468 13.8944C67.457 13.3652 67.0664 12.9684 66.5751 12.7038C66.0964 12.4267 65.5798 12.2881 65.0255 12.2881C64.4837 12.2881 63.9672 12.4267 63.4758 12.7038C62.9971 12.981 62.6065 13.3841 62.3042 13.9133C62.0144 14.4424 61.8695 15.0661 61.8695 15.7842C61.8695 16.5023 62.0144 17.1322 62.3042 17.674C62.6065 18.2031 62.9971 18.6063 63.4758 18.8834C63.9672 19.1606 64.4837 19.2992 65.0255 19.2992C65.5798 19.2992 66.0964 19.1606 66.5751 18.8834C67.0664 18.5937 67.457 18.1779 67.7468 17.6362C68.0491 17.0944 68.2003 16.4645 68.2003 15.7464ZM80.7624 10.5873L74.3749 25.8946H72.145L74.2615 20.8299L70.1607 10.5873H72.5607L75.4899 18.5244L78.5325 10.5873H80.7624Z" fill="#1884F6"/>
<path d="M86.3569 18.8633V20.708H83.8413V18.8633H86.3569ZM88.2065 7.29297C89.605 7.29297 90.8279 7.67701 91.8735 8.21875C92.9317 8.74789 93.7442 9.51663 94.311 10.5244C94.8905 11.5197 95.1802 12.6851 95.1802 14.0205C95.1801 15.3557 94.8904 16.5145 94.311 17.4971C93.7441 18.4797 92.9318 19.2365 91.8735 19.7656C90.8279 20.2822 89.5991 20.708 88.2007 20.708H87.8657V18.8633H88.2007C89.7377 18.8633 90.9218 18.3666 91.7407 17.5352C92.5596 16.7037 92.9692 15.5322 92.9692 14.0205C92.9692 12.4961 92.5596 11.3049 91.7407 10.4482C90.9218 9.59171 89.7434 9.16309 88.2065 9.16309L86.021 9.1377V14.8389H83.8413V7.29297H88.2065Z" fill="#1D1D1D"/>
<path d="M98.5349 9.20771C98.1443 9.20771 97.8168 9.07542 97.5522 8.81085C97.2876 8.54628 97.1554 8.21872 97.1554 7.82816C97.1554 7.4376 97.2876 7.11004 97.5522 6.84547C97.8168 6.5809 98.1443 6.44861 98.5349 6.44861C98.9129 6.44861 99.2341 6.5809 99.4987 6.84547C99.7633 7.11004 99.8956 7.4376 99.8956 7.82816C99.8956 8.21872 99.7633 8.54628 99.4987 8.81085C99.2341 9.07542 98.9129 9.20771 98.5349 9.20771ZM99.5932 10.5873V21H97.4388V10.5873H99.5932ZM106.541 10.4172C107.36 10.4172 108.091 10.5873 108.734 10.9274C109.389 11.2676 109.899 11.7715 110.264 12.4392C110.63 13.107 110.812 13.9133 110.812 14.8582V21H108.677V15.1794C108.677 14.2471 108.444 13.5353 107.978 13.044C107.512 12.54 106.875 12.2881 106.069 12.2881C105.263 12.2881 104.62 12.54 104.141 13.044C103.675 13.5353 103.442 14.2471 103.442 15.1794V21H101.288V10.5873H103.442V11.7778C103.795 11.3495 104.242 11.0156 104.784 10.7762C105.338 10.5369 105.924 10.4172 106.541 10.4172ZM116.622 10.4172C117.428 10.4172 118.14 10.581 118.757 10.9085C119.387 11.2235 119.879 11.6203 120.231 12.0991V10.5873H122.405V21.1701C122.405 22.1276 122.203 22.978 121.8 23.7213C121.397 24.4772 120.811 25.0693 120.042 25.4977C119.286 25.9261 118.379 26.1402 117.321 26.1402C115.91 26.1402 114.738 25.8064 113.806 25.1386C112.874 24.4835 112.345 23.589 112.219 22.4551H114.354C114.518 22.9969 114.864 23.4315 115.393 23.7591C115.935 24.0993 116.578 24.2693 117.321 24.2693C118.19 24.2693 118.89 24.0048 119.419 23.4756C119.96 22.9465 120.231 22.178 120.231 21.1701V19.4315C119.866 19.9228 119.368 20.3386 118.738 20.6787C118.121 21.0063 117.416 21.1701 116.622 21.1701C115.715 21.1701 114.883 20.9433 114.127 20.4898C113.384 20.0236 112.792 19.3811 112.351 18.5622C111.923 17.7307 111.708 16.7921 111.708 15.7464C111.708 14.7007 111.923 13.7747 112.351 12.9684C112.792 12.1621 113.384 11.5384 114.127 11.0975C114.883 10.6439 115.715 10.4172 116.622 10.4172ZM120.231 15.7842C120.231 15.0661 120.08 14.4424 119.778 13.9133C119.488 13.3841 119.104 12.981 118.625 12.7038C118.146 12.4267 117.63 12.2881 117.075 12.2881C116.521 12.2881 116.004 12.4267 115.526 12.7038C115.047 12.9684 114.656 13.3652 114.354 13.8944C114.064 14.4109 113.919 15.0283 113.919 15.7464C113.919 16.4645 114.064 17.0944 114.354 17.6362C114.656 18.1779 115.047 18.5937 115.526 18.8834C116.017 19.1606 116.534 19.2992 117.075 19.2992C117.63 19.2992 118.146 19.1606 118.625 18.8834C119.104 18.6063 119.488 18.2031 119.778 17.674C120.08 17.1322 120.231 16.5023 120.231 15.7842ZM126.255 12.118C126.62 11.6392 127.118 11.2361 127.748 10.9085C128.378 10.581 129.089 10.4172 129.883 10.4172C130.79 10.4172 131.615 10.6439 132.359 11.0975C133.115 11.5384 133.707 12.1621 134.135 12.9684C134.564 13.7747 134.778 14.7007 134.778 15.7464C134.778 16.7921 134.564 17.7307 134.135 18.5622C133.707 19.3811 133.115 20.0236 132.359 20.4898C131.615 20.9433 130.79 21.1701 129.883 21.1701C129.089 21.1701 128.384 21.0126 127.767 20.6976C127.149 20.3701 126.645 19.9669 126.255 19.4882V25.9513H124.1V10.5873H126.255V12.118ZM132.586 15.7464C132.586 15.0283 132.434 14.4109 132.132 13.8944C131.842 13.3652 131.452 12.9684 130.96 12.7038C130.482 12.4267 129.965 12.2881 129.411 12.2881C128.869 12.2881 128.352 12.4267 127.861 12.7038C127.382 12.981 126.992 13.3841 126.689 13.9133C126.4 14.4424 126.255 15.0661 126.255 15.7842C126.255 16.5023 126.4 17.1322 126.689 17.674C126.992 18.2031 127.382 18.6063 127.861 18.8834C128.352 19.1606 128.869 19.2992 129.411 19.2992C129.965 19.2992 130.482 19.1606 130.96 18.8834C131.452 18.5937 131.842 18.1779 132.132 17.6362C132.434 17.0944 132.586 16.4645 132.586 15.7464ZM135.056 15.7464C135.056 14.7007 135.27 13.7747 135.699 12.9684C136.14 12.1621 136.732 11.5384 137.475 11.0975C138.231 10.6439 139.062 10.4172 139.97 10.4172C140.789 10.4172 141.5 10.581 142.105 10.9085C142.722 11.2235 143.214 11.6203 143.579 12.0991V10.5873H145.752V21H143.579V19.4504C143.214 19.9417 142.716 20.3512 142.086 20.6787C141.456 21.0063 140.738 21.1701 139.932 21.1701C139.037 21.1701 138.218 20.9433 137.475 20.4898C136.732 20.0236 136.14 19.3811 135.699 18.5622C135.27 17.7307 135.056 16.7921 135.056 15.7464ZM143.579 15.7842C143.579 15.0661 143.428 14.4424 143.126 13.9133C142.836 13.3841 142.452 12.981 141.973 12.7038C141.494 12.4267 140.977 12.2881 140.423 12.2881C139.869 12.2881 139.352 12.4267 138.874 12.7038C138.395 12.9684 138.004 13.3652 137.702 13.8944C137.412 14.4109 137.267 15.0283 137.267 15.7464C137.267 16.4645 137.412 17.0944 137.702 17.6362C138.004 18.1779 138.395 18.5937 138.874 18.8834C139.365 19.1606 139.881 19.2992 140.423 19.2992C140.977 19.2992 141.494 19.1606 141.973 18.8834C142.452 18.6063 142.836 18.2031 143.126 17.674C143.428 17.1322 143.579 16.5023 143.579 15.7842ZM156.822 10.5873L150.434 25.8946H148.204L150.321 20.8299L146.22 10.5873H148.62L151.549 18.5244L154.592 10.5873H156.822Z" fill="#1D1D1D"/>
</svg>
